<?xml version="1.0" encoding="UTF-8" standalone="no"?>
<!-- Created with Inkscape (http://www.inkscape.org/) -->

<svg
   xmlns:dc="http://purl.org/dc/elements/1.1/"
   xmlns:cc="http://creativecommons.org/ns#"
   xmlns:rdf="http://www.w3.org/1999/02/22-rdf-syntax-ns#"
   xmlns:svg="http://www.w3.org/2000/svg"
   xmlns="http://www.w3.org/2000/svg"
   xmlns:sodipodi="http://sodipodi.sourceforge.net/DTD/sodipodi-0.dtd"
   xmlns:inkscape="http://www.inkscape.org/namespaces/inkscape"
   width="210mm"
   height="148mm"
   viewBox="0 0 210 148"
   version="1.1"
   id="svg8"
   inkscape:version="0.92.1 r15371"
   sodipodi:docname="GoogleTemp.svg">
  <defs
     id="defs2" />
  <sodipodi:namedview
     id="base"
     pagecolor="#ffffff"
     bordercolor="#666666"
     borderopacity="1.0"
     inkscape:pageopacity="0.0"
     inkscape:pageshadow="2"
     inkscape:zoom="0.35"
     inkscape:cx="-144.28571"
     inkscape:cy="560"
     inkscape:document-units="mm"
     inkscape:current-layer="layer1"
     showgrid="false"
     inkscape:window-width="2560"
     inkscape:window-height="1535"
     inkscape:window-x="0"
     inkscape:window-y="0"
     inkscape:window-maximized="1" />
  <metadata
     id="metadata5">
    <rdf:RDF>
      <cc:Work
         rdf:about="">
        <dc:format>image/svg+xml</dc:format>
        <dc:type
           rdf:resource="http://purl.org/dc/dcmitype/StillImage" />
        <dc:title></dc:title>
      </cc:Work>
    </rdf:RDF>
  </metadata>
  <g
     inkscape:label="Ebene 1"
     inkscape:groupmode="layer"
     id="layer1"
     transform="translate(0,-149)">
    <g
       transform="matrix(0.35277777,0,0,-0.35277777,9.0034538,269.30757)"
       inkscape:label="ink_ext_XXXXXX"
       id="g4512">
      <g
         transform="scale(0.1)"
         id="g4514">
        <path
           inkscape:connector-curvature="0"
           id="path4516"
           style="fill:#48ae44;fill-opacity:1;fill-rule:nonzero;stroke:none"
           d="m 3951.52,960 h 148.492 v 993.324 H 3951.52 Z" />
        <path
           inkscape:connector-curvature="0"
           id="path4518"
           style="fill:#fbc723;fill-opacity:1;fill-rule:nonzero;stroke:none"
           d="m 2800.01,1072.65 c -102.41,0 -190.74,84.48 -190.74,204.81 0,121.6 88.33,204.81 190.74,204.81 102.4,0 190.72,-83.21 190.72,-204.81 0,-120.33 -88.32,-204.81 -190.72,-204.81 z m 0,542.74 c -186.9,0 -339.22,-142.08 -339.22,-337.93 0,-194.57 152.32,-337.94 339.22,-337.94 186.88,0 339.22,143.37 339.22,337.94 0,195.85 -152.34,337.93 -339.22,337.93" />
        <path
           inkscape:connector-curvature="0"
           id="path4520"
           style="fill:#ef352b;fill-opacity:1;fill-rule:nonzero;stroke:none"
           d="m 2060.01,1072.65 c -102.41,0 -190.73,84.48 -190.73,204.81 0,121.6 88.32,204.81 190.73,204.81 102.4,0 190.72,-83.21 190.72,-204.81 0,-120.33 -88.32,-204.81 -190.72,-204.81 z m 0,542.74 c -186.89,0 -339.22,-142.08 -339.22,-337.93 0,-194.57 152.33,-337.94 339.22,-337.94 186.89,0 339.21,143.37 339.21,337.94 0,195.85 -152.32,337.93 -339.21,337.93" />
        <path
           inkscape:connector-curvature="0"
           id="path4522"
           style="fill:#ef352b;fill-opacity:1;fill-rule:nonzero;stroke:none"
           d="m 4495.54,1484.82 c 58.89,0 108.81,-29.44 125.45,-71.68 L 4318.9,1287.7 c -3.84,130.56 101.13,197.12 176.64,197.12 z m 11.53,-412.17 c -75.53,0 -129.29,34.56 -163.85,102.4 l 451.87,186.89 -15.37,38.4 c -28.16,75.52 -113.92,215.05 -289.29,215.05 -174.09,0 -318.73,-136.97 -318.73,-337.93 0,-189.45 143.36,-337.94 335.37,-337.94 154.88,0 244.49,94.72 281.61,149.77 l -115.21,76.8 c -38.39,-56.32 -90.88,-93.44 -166.4,-93.44" />
        <path
           inkscape:connector-curvature="0"
           id="path4524"
           style="fill:#3e84cd;fill-opacity:1;fill-rule:nonzero;stroke:none"
           d="m 647.234,1464.35 c 0,289.29 243.211,524.82 532.506,524.82 160.01,0 273.94,-62.72 359.7,-144.65 L 1438.32,1743.4 c -61.45,57.6 -144.65,102.4 -258.58,102.4 -211.209,0 -376.334,-170.25 -376.334,-381.45 0,-211.22 165.125,-381.46 376.334,-381.46 136.97,0 215.05,55.04 264.97,104.96 40.97,40.96 67.85,99.85 78.09,180.49 h -343.06 v 143.36 h 482.58 c 5.13,-25.6 7.69,-56.32 7.69,-89.6 0,-107.52 -29.45,-240.65 -124.17,-335.38 -92.16,-96.001 -209.93,-147.2 -366.1,-147.2 -289.295,0 -532.506,235.53 -532.506,524.83" />
        <path
           inkscape:connector-curvature="0"
           id="path4526"
           style="fill:#3e84cd;fill-opacity:1;fill-rule:nonzero;stroke:none"
           d="m 3538.06,1072.65 c -102.4,0 -188.17,85.76 -188.17,203.53 0,119.04 85.77,206.09 188.17,206.09 101.13,0 180.49,-87.05 180.49,-206.09 0,-117.77 -79.36,-203.53 -180.49,-203.53 z m 170.25,522.26 v -55.04 h -5.12 c -33.28,39.68 -97.28,75.52 -177.93,75.52 -168.96,0 -323.86,-148.49 -323.86,-339.21 0,-189.46 154.9,-336.66 323.86,-336.66 80.65,0 144.65,35.839 177.93,76.8 h 5.12 v -48.64 c 0,-129.289 -69.12,-198.41 -180.49,-198.41 -90.88,0 -147.21,65.289 -170.24,120.32 l -129.29,-53.762 c 37.12,-89.598 135.68,-199.687 299.53,-199.687 174.09,0 321.3,102.41 321.3,352.019 v 606.75 h -140.81" />
      </g>
    </g>
  </g>
</svg>
